<svg width="510" height="511" viewBox="0 0 510 511" fill="none" xmlns="http://www.w3.org/2000/svg">
<rect width="510" height="511" rx="255" fill="#424242"/>
<rect x="225" y="165.5" width="60" height="160" rx="12" fill="#7389FA"/>
<rect x="165" y="195.5" width="60" height="180" rx="12" transform="rotate(-90 165 195.5)" fill="#7389FA"/>
<path fill-rule="evenodd" clip-rule="evenodd" d="M225 207.459C225.33 207.486 225.663 207.5 226 207.5L249 207.5C255.627 207.5 261 202.127 261 195.5L261 183.5C261 176.873 255.627 171.5 249 171.5L226 171.5C219.373 171.5 214 176.873 214 183.5L214 195.5C214 195.514 214 195.527 214 195.541C220.146 196.048 224.979 201.187 225 207.459Z" fill="#7389FA"/>
<path fill-rule="evenodd" clip-rule="evenodd" d="M296.959 195.5C296.986 195.17 297 194.837 297 194.5L297 171.5C297 164.873 291.627 159.5 285 159.5L273 159.5C266.373 159.5 261 164.873 261 171.5L261 194.5C261 201.127 266.373 206.5 273 206.5L285 206.5C285.014 206.5 285.027 206.5 285.041 206.5C285.548 200.354 290.687 195.521 296.959 195.5Z" fill="#7389FA"/>
<rect x="165" y="346" width="180" height="60" fill="#7389FA"/>
<path d="M105 298C105 291.373 110.373 286 117 286H153C159.627 286 165 291.373 165 298V406H135C118.431 406 105 392.569 105 376V298Z" fill="#7389FA"/>
<path d="M345 298C345 291.373 350.373 286 357 286H393C399.627 286 405 291.373 405 298V376C405 392.569 391.569 406 375 406H345V298Z" fill="#7389FA"/>
<path fill-rule="evenodd" clip-rule="evenodd" d="M315 346C331.569 346 345 332.569 345 316V346H315Z" fill="#7389FA"/>
<path fill-rule="evenodd" clip-rule="evenodd" d="M165 316C165 332.569 178.431 346 195 346H165V316Z" fill="#7389FA"/>
</svg>
