<svg width="1172" height="271" viewBox="0 0 1172 271" fill="none" xmlns="http://www.w3.org/2000/svg">
<rect x="120" y="30.5" width="60" height="160" rx="12" fill="#909090"/>
<rect x="60" y="60.5" width="60" height="180" rx="12" transform="rotate(-90 60 60.5)" fill="#909090"/>
<path fill-rule="evenodd" clip-rule="evenodd" d="M120 72.4589C120.33 72.4861 120.663 72.5 121 72.5L144 72.5C150.627 72.5 156 67.1274 156 60.5L156 48.5C156 41.8726 150.627 36.5 144 36.5L121 36.5C114.373 36.5 109 41.8726 109 48.5L109 60.5C109 60.5137 109 60.5274 109 60.5411C115.146 61.0482 119.979 66.1869 120 72.4589Z" fill="#909090"/>
<path fill-rule="evenodd" clip-rule="evenodd" d="M191.959 60.5001C191.986 60.1703 192 59.8368 192 59.5L192 36.5C192 29.8726 186.627 24.5 180 24.5L168 24.5C161.373 24.5 156 29.8726 156 36.5L156 59.5C156 66.1274 161.373 71.5 168 71.5L180 71.5C180.014 71.5 180.027 71.5 180.041 71.4999C180.548 65.3538 185.687 60.5211 191.959 60.5001Z" fill="#909090"/>
<rect x="60" y="211" width="180" height="60" fill="#909090"/>
<path d="M0 163C0 156.373 5.37258 151 12 151H48C54.6274 151 60 156.373 60 163V271H30C13.4315 271 0 257.569 0 241V163Z" fill="#909090"/>
<path d="M240 163C240 156.373 245.373 151 252 151H288C294.627 151 300 156.373 300 163V241C300 257.569 286.569 271 270 271H240V163Z" fill="#909090"/>
<path fill-rule="evenodd" clip-rule="evenodd" d="M210 211C226.569 211 240 197.569 240 181V211H210Z" fill="#909090"/>
<path fill-rule="evenodd" clip-rule="evenodd" d="M60 181C60 197.569 73.4315 211 90 211H60V181Z" fill="#909090"/>
<path d="M424.829 78.1406V199H400.01V78.1406H424.829ZM462.017 78.1406V97.6475H363.403V78.1406H462.017ZM508.252 200.66C501.279 200.66 495.026 199.553 489.492 197.34C483.958 195.071 479.255 191.944 475.381 187.96C471.562 183.976 468.63 179.355 466.582 174.098C464.535 168.785 463.511 163.141 463.511 157.164V153.844C463.511 147.037 464.479 140.812 466.416 135.167C468.353 129.522 471.12 124.625 474.717 120.475C478.369 116.324 482.796 113.142 487.998 110.929C493.2 108.66 499.066 107.525 505.596 107.525C511.96 107.525 517.604 108.577 522.529 110.68C527.454 112.783 531.577 115.771 534.897 119.645C538.273 123.518 540.819 128.167 542.534 133.59C544.25 138.958 545.107 144.934 545.107 151.52V161.48H473.721V145.543H521.616V143.717C521.616 140.396 521.007 137.436 519.79 134.835C518.628 132.179 516.857 130.076 514.478 128.526C512.098 126.977 509.054 126.202 505.347 126.202C502.192 126.202 499.481 126.894 497.212 128.277C494.943 129.661 493.089 131.598 491.65 134.088C490.267 136.578 489.215 139.511 488.496 142.887C487.832 146.207 487.5 149.859 487.5 153.844V157.164C487.5 160.761 487.998 164.081 488.994 167.125C490.046 170.169 491.512 172.797 493.394 175.011C495.33 177.224 497.655 178.94 500.366 180.157C503.133 181.375 506.26 181.983 509.746 181.983C514.062 181.983 518.075 181.153 521.782 179.493C525.545 177.778 528.783 175.204 531.494 171.773L543.115 184.391C541.234 187.102 538.66 189.703 535.396 192.193C532.186 194.684 528.312 196.731 523.774 198.336C519.237 199.885 514.062 200.66 508.252 200.66ZM583.955 71.5V199H559.966V71.5H583.955ZM645.049 200.66C638.076 200.66 631.823 199.553 626.289 197.34C620.755 195.071 616.051 191.944 612.178 187.96C608.359 183.976 605.426 179.355 603.379 174.098C601.331 168.785 600.308 163.141 600.308 157.164V153.844C600.308 147.037 601.276 140.812 603.213 135.167C605.15 129.522 607.917 124.625 611.514 120.475C615.166 116.324 619.593 113.142 624.795 110.929C629.997 108.66 635.863 107.525 642.393 107.525C648.757 107.525 654.401 108.577 659.326 110.68C664.251 112.783 668.374 115.771 671.694 119.645C675.07 123.518 677.616 128.167 679.331 133.59C681.047 138.958 681.904 144.934 681.904 151.52V161.48H610.518V145.543H658.413V143.717C658.413 140.396 657.804 137.436 656.587 134.835C655.425 132.179 653.654 130.076 651.274 128.526C648.895 126.977 645.851 126.202 642.144 126.202C638.989 126.202 636.278 126.894 634.009 128.277C631.74 129.661 629.886 131.598 628.447 134.088C627.064 136.578 626.012 139.511 625.293 142.887C624.629 146.207 624.297 149.859 624.297 153.844V157.164C624.297 160.761 624.795 164.081 625.791 167.125C626.842 170.169 628.309 172.797 630.19 175.011C632.127 177.224 634.451 178.94 637.163 180.157C639.93 181.375 643.057 181.983 646.543 181.983C650.859 181.983 654.871 181.153 658.579 179.493C662.342 177.778 665.579 175.204 668.291 171.773L679.912 184.391C678.031 187.102 675.457 189.703 672.192 192.193C668.983 194.684 665.109 196.731 660.571 198.336C656.034 199.885 650.859 200.66 645.049 200.66ZM809.404 158.907H834.224C833.726 167.042 831.484 174.264 827.5 180.572C823.571 186.881 818.065 191.806 810.981 195.348C803.953 198.889 795.487 200.66 785.581 200.66C777.834 200.66 770.889 199.332 764.746 196.676C758.604 193.964 753.346 190.09 748.975 185.055C744.658 180.019 741.366 173.932 739.097 166.793C736.828 159.654 735.693 151.658 735.693 142.804V134.42C735.693 125.566 736.855 117.569 739.18 110.431C741.559 103.237 744.935 97.1217 749.307 92.0859C753.734 87.0501 759.019 83.1764 765.161 80.4648C771.304 77.7533 778.166 76.3975 785.747 76.3975C795.819 76.3975 804.313 78.2236 811.23 81.876C818.203 85.5283 823.599 90.5641 827.417 96.9834C831.291 103.403 833.615 110.707 834.39 118.897H809.487C809.211 114.028 808.242 109.905 806.582 106.529C804.922 103.098 802.404 100.525 799.028 98.8096C795.708 97.0387 791.281 96.1533 785.747 96.1533C781.597 96.1533 777.972 96.9281 774.873 98.4775C771.774 100.027 769.173 102.379 767.07 105.533C764.967 108.688 763.39 112.672 762.339 117.486C761.343 122.245 760.845 127.835 760.845 134.254V142.804C760.845 149.057 761.315 154.563 762.256 159.322C763.197 164.026 764.635 168.01 766.572 171.275C768.564 174.485 771.11 176.92 774.209 178.58C777.363 180.185 781.154 180.987 785.581 180.987C790.783 180.987 795.072 180.157 798.447 178.497C801.823 176.837 804.396 174.374 806.167 171.109C807.993 167.844 809.072 163.777 809.404 158.907ZM874.316 71.5V199H850.327V71.5H874.316ZM890.254 155.006V153.263C890.254 146.677 891.195 140.618 893.076 135.084C894.958 129.495 897.697 124.653 901.294 120.558C904.891 116.463 909.318 113.281 914.575 111.012C919.832 108.688 925.864 107.525 932.671 107.525C939.478 107.525 945.537 108.688 950.85 111.012C956.162 113.281 960.617 116.463 964.214 120.558C967.866 124.653 970.633 129.495 972.515 135.084C974.396 140.618 975.337 146.677 975.337 153.263V155.006C975.337 161.536 974.396 167.595 972.515 173.185C970.633 178.718 967.866 183.561 964.214 187.711C960.617 191.806 956.19 194.988 950.933 197.257C945.675 199.526 939.644 200.66 932.837 200.66C926.03 200.66 919.971 199.526 914.658 197.257C909.401 194.988 904.946 191.806 901.294 187.711C897.697 183.561 894.958 178.718 893.076 173.185C891.195 167.595 890.254 161.536 890.254 155.006ZM914.16 153.263V155.006C914.16 158.769 914.492 162.283 915.156 165.548C915.82 168.813 916.872 171.69 918.311 174.181C919.805 176.616 921.742 178.525 924.121 179.908C926.501 181.292 929.406 181.983 932.837 181.983C936.157 181.983 939.007 181.292 941.387 179.908C943.766 178.525 945.675 176.616 947.114 174.181C948.553 171.69 949.604 168.813 950.269 165.548C950.988 162.283 951.348 158.769 951.348 155.006V153.263C951.348 149.61 950.988 146.179 950.269 142.97C949.604 139.705 948.525 136.827 947.031 134.337C945.592 131.791 943.683 129.799 941.304 128.36C938.924 126.922 936.047 126.202 932.671 126.202C929.295 126.202 926.418 126.922 924.038 128.36C921.714 129.799 919.805 131.791 918.311 134.337C916.872 136.827 915.82 139.705 915.156 142.97C914.492 146.179 914.16 149.61 914.16 153.263ZM1043.15 177.501V109.186H1067.06V199H1044.57L1043.15 177.501ZM1045.81 159.073L1052.87 158.907C1052.87 164.884 1052.17 170.445 1050.79 175.592C1049.41 180.683 1047.33 185.11 1044.57 188.873C1041.8 192.581 1038.31 195.486 1034.11 197.589C1029.9 199.636 1024.95 200.66 1019.25 200.66C1014.88 200.66 1010.84 200.051 1007.13 198.834C1003.48 197.561 1000.32 195.597 997.666 192.94C995.065 190.229 993.018 186.77 991.523 182.564C990.085 178.303 989.365 173.185 989.365 167.208V109.186H1013.27V167.374C1013.27 170.03 1013.58 172.271 1014.18 174.098C1014.85 175.924 1015.76 177.418 1016.92 178.58C1018.09 179.742 1019.44 180.572 1020.99 181.07C1022.6 181.568 1024.37 181.817 1026.3 181.817C1031.23 181.817 1035.1 180.821 1037.92 178.829C1040.8 176.837 1042.82 174.125 1043.98 170.694C1045.2 167.208 1045.81 163.334 1045.81 159.073ZM1138.36 179.41V71.5H1162.44V199H1140.77L1138.36 179.41ZM1081.59 155.172V153.429C1081.59 146.567 1082.36 140.341 1083.91 134.752C1085.46 129.107 1087.73 124.265 1090.72 120.226C1093.71 116.186 1097.39 113.059 1101.76 110.846C1106.13 108.632 1111.11 107.525 1116.7 107.525C1121.96 107.525 1126.55 108.632 1130.48 110.846C1134.46 113.059 1137.84 116.214 1140.61 120.309C1143.43 124.348 1145.7 129.135 1147.41 134.669C1149.13 140.147 1150.37 146.152 1151.15 152.682V156.5C1150.37 162.753 1149.13 168.564 1147.41 173.932C1145.7 179.299 1143.43 184.003 1140.61 188.043C1137.84 192.027 1134.46 195.126 1130.48 197.34C1126.49 199.553 1121.85 200.66 1116.53 200.66C1110.94 200.66 1105.96 199.526 1101.59 197.257C1097.28 194.988 1093.62 191.806 1090.63 187.711C1087.7 183.616 1085.46 178.801 1083.91 173.268C1082.36 167.734 1081.59 161.702 1081.59 155.172ZM1105.49 153.429V155.172C1105.49 158.88 1105.77 162.338 1106.32 165.548C1106.93 168.757 1107.9 171.607 1109.23 174.098C1110.61 176.533 1112.38 178.442 1114.54 179.825C1116.75 181.153 1119.44 181.817 1122.59 181.817C1126.69 181.817 1130.06 180.904 1132.72 179.078C1135.38 177.197 1137.4 174.623 1138.78 171.358C1140.22 168.093 1141.05 164.33 1141.27 160.069V149.195C1141.1 145.709 1140.61 142.582 1139.78 139.815C1139 136.993 1137.84 134.586 1136.29 132.594C1134.79 130.602 1132.91 129.052 1130.64 127.945C1128.43 126.839 1125.8 126.285 1122.76 126.285C1119.66 126.285 1117 127.005 1114.79 128.443C1112.58 129.827 1110.78 131.736 1109.39 134.171C1108.07 136.606 1107.07 139.483 1106.41 142.804C1105.8 146.069 1105.49 149.61 1105.49 153.429Z" fill="#919191"/>
</svg>